<svg version="1.1" id="Layer_1" xmlns="http://www.w3.org/2000/svg" xmlns:xlink="http://www.w3.org/1999/xlink" x="0px" y="0px"
	 width="100%" viewBox="0 0 500 500" enable-background="new 0 0 500 500" xml:space="preserve">
<path fill="#FFFFFF" opacity="1.000000" stroke="none" 
	d="
M501.000000,180.000000 
	C501.000000,287.333313 501.000000,394.166595 501.000000,500.999939 
	C334.333405,500.999939 167.666794,500.999939 1.000147,500.999969 
	C1.000098,334.333435 1.000098,167.666870 1.000049,1.000236 
	C167.666519,1.000157 334.333038,1.000157 500.999786,1.000079 
	C501.000000,60.500000 501.000000,120.000000 501.000000,180.000000 
M85.153534,66.930649 
	C84.109566,67.310883 83.065598,67.691116 81.989265,67.290947 
	C80.854012,63.128178 77.078979,64.673973 76.387527,66.133255 
	C74.651978,69.796089 73.882736,74.012772 73.300438,78.089401 
	C72.961533,80.462051 73.965187,82.992767 73.966118,85.452515 
	C74.005585,189.084656 74.001907,292.716797 73.993675,396.348969 
	C73.993309,400.927094 73.617592,405.524078 73.920792,410.078705 
	C74.315674,416.010468 74.648849,416.057373 79.536980,414.393341 
	C81.046059,414.532837 82.555145,414.672363 84.905403,414.926788 
	C87.163498,415.289795 89.420708,415.962036 91.679832,415.968536 
	C117.497749,416.042969 143.315964,416.020782 169.134094,416.015106 
	C251.085342,415.997070 333.036591,415.975128 415.344696,416.455322 
	C418.475952,416.967316 421.839478,417.453766 423.514099,414.032166 
	C424.535370,411.945435 424.539124,409.360657 425.192963,406.182587 
	C425.478210,404.236389 426.012268,402.290253 426.013000,400.343964 
	C426.052979,294.081818 426.050903,187.819672 426.043579,81.557533 
	C426.042908,71.772049 420.365601,65.965553 410.769135,65.964508 
	C304.173889,65.952858 197.578644,65.949921 90.983414,65.992783 
	C89.265160,65.993477 87.547150,66.598480 85.153534,66.930649 
z"/>
<path fill="#FEFEFE" opacity="1.000000" stroke="none" 
	d="
M84.064224,414.811890 
	C82.555145,414.672363 81.046059,414.532837 79.536980,414.393341 
	C74.648849,416.057373 74.315674,416.010468 73.920792,410.078705 
	C73.617592,405.524078 73.993309,400.927094 73.993675,396.348969 
	C74.001907,292.716797 74.005585,189.084656 73.966118,85.452515 
	C73.965187,82.992767 72.961533,80.462051 73.300438,78.089401 
	C73.882736,74.012772 74.651978,69.796089 76.387527,66.133255 
	C77.078979,64.673973 80.854012,63.128178 81.869064,67.992279 
	C77.940323,71.799461 75.952232,75.671791 75.954178,80.723801 
	C75.995338,187.534515 75.976227,294.345245 76.029762,401.155945 
	C76.030884,403.398987 76.750877,405.641602 77.135513,407.884430 
	C77.419632,407.826080 77.703758,407.767731 77.987877,407.709412 
	C77.987877,405.073334 77.987885,402.437225 77.987885,399.801147 
	C77.987633,294.156830 78.043159,188.512451 77.866562,82.868431 
	C77.854263,75.513039 80.570442,70.835045 87.450226,67.943741 
	C154.539459,67.982796 221.161194,67.969841 287.782928,67.964073 
	C328.755310,67.960526 369.727997,67.903748 410.699432,68.100914 
	C413.746063,68.115578 417.139191,69.438637 419.742981,71.124062 
	C423.731598,73.705925 424.097717,78.112915 424.094604,82.660355 
	C424.024902,183.592453 424.059235,284.524597 424.001038,385.456726 
	C423.997040,392.391174 423.404846,399.324707 423.194733,406.261963 
	C423.187805,406.489380 424.371307,406.752899 424.999878,406.999603 
	C424.539124,409.360657 424.535370,411.945435 423.514099,414.032166 
	C421.839478,417.453766 418.475952,416.967316 415.397949,415.934387 
	C416.592621,414.869781 417.734070,414.326141 419.545929,413.463196 
	C306.491547,413.463196 194.471573,413.463196 82.154572,413.463196 
	C83.028229,414.080231 83.546227,414.446045 84.064224,414.811890 
M295.506775,397.897827 
	C295.974457,397.485687 296.442139,397.073578 297.218811,396.389130 
	C296.153625,396.464020 295.516663,396.508789 294.708313,395.558868 
	C294.708313,388.942474 294.708313,382.326080 294.708313,375.564331 
	C293.740875,375.682831 292.296661,375.859711 291.592682,375.945953 
	C291.592682,382.188507 292.015228,388.163269 291.432678,394.038361 
	C291.088562,397.508575 291.587616,398.618225 295.506775,397.897827 
M346.895172,396.257202 
	C343.575134,394.809875 339.209808,394.187531 337.231689,391.681091 
	C335.288788,389.219299 335.770966,384.843567 335.212799,381.452789 
	C331.967560,385.806152 331.842224,390.850800 335.011963,394.723999 
	C338.285309,398.723816 342.110168,399.302307 347.842804,396.700775 
	C347.691254,396.617737 347.539734,396.534698 346.895172,396.257202 
M341.018250,377.993561 
	C341.732422,378.631653 342.446564,379.269714 343.160736,379.907806 
	C343.764923,379.146271 344.369110,378.384735 345.694305,377.691101 
	C347.295410,378.970398 348.896515,380.249725 349.799316,381.790741 
	C349.217010,382.461884 348.634674,383.133026 347.474884,384.469696 
	C349.588287,384.161682 350.553894,384.020935 351.823456,384.584167 
	C351.686798,387.295746 351.550140,390.007294 351.415039,392.688477 
	C355.124603,390.018127 356.117218,385.875702 354.128326,381.221039 
	C352.271606,376.875732 347.876068,374.484863 343.294434,375.519745 
	C342.438812,375.713043 341.753174,376.658905 341.018250,377.993561 
M204.188492,146.500214 
	C204.191788,153.159744 204.141327,159.819824 204.207428,166.478729 
	C204.539886,199.966644 204.892181,233.454361 205.279709,266.941681 
	C205.304581,269.091156 205.448029,271.293121 205.945023,273.373016 
	C207.334122,279.186523 213.805618,283.497650 219.579514,282.661163 
	C225.676315,281.777893 229.003677,277.632080 229.003799,270.910339 
	C229.004517,229.419754 229.003601,187.929153 229.004684,146.438568 
	C229.004868,139.349014 230.438812,136.585892 234.239151,137.106735 
	C240.022812,137.899414 238.974258,142.592026 238.974670,146.446152 
	C238.980804,203.598129 238.930084,260.750122 238.943970,317.902100 
	C238.946167,326.941223 243.600143,332.152954 251.328079,332.145996 
	C259.031982,332.139069 264.004364,326.684204 263.894073,317.956451 
	C263.190979,262.317841 262.425842,206.680008 261.670593,151.042068 
	C261.634460,148.378616 260.818726,145.487640 261.614746,143.122971 
	C262.306183,141.068985 264.513367,138.635437 266.506958,138.113968 
	C269.653046,137.291031 271.199615,139.919449 271.317566,142.967316 
	C271.431946,145.921982 271.342377,148.884537 271.342377,152.085342 
	C298.919434,152.085342 325.729156,152.189026 352.536713,151.992554 
	C357.535675,151.955917 361.312958,148.955505 363.084473,144.142883 
	C366.419037,135.084030 360.218445,127.199249 349.705719,127.185204 
	C311.381134,127.134026 273.056488,127.155510 234.731857,127.149666 
	C232.946259,127.149399 231.160645,127.149635 229.109558,127.149635 
	C229.109558,121.039337 229.109558,115.306198 229.109558,109.177368 
	C230.987289,109.177368 232.614365,109.177925 234.241440,109.177284 
	C251.070938,109.170639 267.900787,109.213112 284.729553,109.098129 
	C286.973846,109.082794 289.444092,108.727837 291.409210,107.736382 
	C296.591431,105.121780 299.038696,99.182213 297.617584,93.806915 
	C295.966156,87.560547 291.186737,84.158913 283.668549,84.154625 
	C240.011856,84.129753 196.355133,84.144707 152.698441,84.177528 
	C151.048889,84.178772 149.358551,84.328293 147.757431,84.706215 
	C141.596680,86.160370 137.511612,91.797188 138.060104,97.904594 
	C138.643768,104.403595 143.718887,109.117577 150.427429,109.144463 
	C166.256866,109.207909 182.086670,109.173477 197.916336,109.178474 
	C199.703339,109.179039 201.490341,109.178551 203.037521,109.178551 
	C203.429626,109.958321 203.693436,110.240463 203.697815,110.526588 
	C203.876266,122.184204 204.031357,133.842178 204.188492,146.500214 
M326.288544,208.251434 
	C333.180573,204.974655 336.129395,199.914200 334.734467,193.757217 
	C333.364044,187.708237 328.228851,184.062698 320.910309,184.005005 
	C316.090851,183.967026 311.270813,183.997345 306.451050,183.997299 
	C295.198059,183.997223 283.945099,183.997269 272.829956,183.997269 
	C272.829956,192.535675 272.829956,200.581741 272.829956,208.619843 
	C290.740692,208.619843 308.138245,208.619843 326.288544,208.251434 
M192.448639,152.173203 
	C193.694946,151.421463 195.993896,150.708984 196.023636,149.911835 
	C196.300598,142.488678 196.187546,135.050995 196.187546,127.275429 
	C180.335083,127.275429 164.926361,127.101486 149.528961,127.440712 
	C146.854355,127.499634 143.752396,129.199203 141.680801,131.065567 
	C137.766098,134.592422 136.895447,139.395615 138.952362,144.292862 
	C141.063049,149.318146 145.057175,152.090393 150.590408,152.122101 
	C164.213028,152.200195 177.836288,152.163635 192.448639,152.173203 
M377.906494,377.674713 
	C377.906494,382.368988 377.906494,387.063232 377.906494,391.757507 
	C377.367310,391.923615 376.828125,392.089722 376.288940,392.255859 
	C371.722137,386.807312 367.155334,381.358795 362.196838,375.442963 
	C361.842255,382.935516 361.486267,390.458344 361.130249,397.981171 
	C361.650665,398.060028 362.171082,398.138885 362.691498,398.217743 
	C363.070374,393.527832 363.449219,388.837921 363.739960,385.238770 
	C368.474945,388.945435 373.423248,392.819122 378.662262,396.920380 
	C379.184601,390.210266 379.765656,382.745697 380.346741,375.281128 
	C380.031342,375.093811 379.715942,374.906464 379.400574,374.719147 
	C378.761078,375.499603 378.121613,376.280060 377.906494,377.674713 
M126.794861,397.934021 
	C128.428375,397.723938 130.061890,397.513824 130.699142,397.431885 
	C129.691406,390.235901 130.332062,383.921448 130.701660,377.768036 
	C133.983459,377.307465 136.520218,376.951447 139.056976,376.595398 
	C138.975830,376.112183 138.894684,375.628937 138.813538,375.145691 
	C132.395889,375.319489 125.949455,375.186493 119.596535,376.049927 
	C119.639854,376.647552 119.683182,377.245178 119.726501,377.842804 
	C122.112717,377.842804 124.498940,377.842804 127.813126,377.842804 
	C127.270416,384.600769 126.759941,390.957367 126.794861,397.934021 
M261.785248,392.341003 
	C261.893860,390.763489 262.002472,389.185974 262.103577,387.717346 
	C264.389252,387.372864 266.119080,387.112152 267.848907,386.851440 
	C267.811035,386.495239 267.773163,386.139038 267.735321,385.782837 
	C265.856628,385.782837 263.977966,385.782837 262.078247,385.782837 
	C262.078247,382.790619 262.078247,380.196411 262.078247,377.546265 
	C264.995148,377.190033 267.662231,376.864349 270.329285,376.538635 
	C270.266235,376.123657 270.203186,375.708710 270.140137,375.293732 
	C266.090881,375.513672 262.041595,375.733612 258.384125,375.932251 
	C258.384125,383.619202 258.384125,390.787933 258.384125,398.307678 
	C260.194702,398.015961 261.907349,397.740021 263.070770,397.552582 
	C262.499481,395.680084 262.126862,394.458801 261.785248,392.341003 
M208.083389,396.087982 
	C208.083389,390.001434 208.083389,383.914917 208.083389,377.759247 
	C211.092117,377.322937 213.894409,376.916565 216.696716,376.510162 
	C216.614960,376.394531 216.533218,376.278870 216.451462,376.163239 
	C210.042038,376.163239 203.632599,376.163239 197.223160,376.163239 
	C197.255936,376.675690 197.288712,377.188171 197.321487,377.700623 
	C199.794571,377.700623 202.267654,377.700623 204.438202,377.700623 
	C204.438202,384.710876 204.438202,391.227722 204.438202,398.796753 
	C206.125183,397.795471 207.470001,396.997253 208.083389,396.087982 
M233.685852,376.651947 
	C229.540436,376.236847 225.395035,375.821747 221.900970,375.471863 
	C221.900970,383.721802 221.900970,390.836517 221.900970,397.951233 
	C222.370300,398.078674 222.839615,398.206116 223.308945,398.333557 
	C226.711716,391.868927 224.115646,384.134308 225.974045,376.456696 
	C228.057785,377.330658 230.521927,377.635010 231.606094,379.019745 
	C232.736237,380.463257 232.535797,382.948517 232.994476,385.390015 
	C236.007751,382.829437 236.593765,380.244812 233.685852,376.651947 
M280.632294,376.267700 
	C279.032990,376.149200 277.433716,376.030731 276.543335,375.964783 
	C276.543335,381.158020 276.189911,385.745728 276.682312,390.240753 
	C276.956512,392.743622 278.024963,396.263885 279.841370,397.216217 
	C282.156097,398.429749 285.589081,397.510284 288.540039,397.510284 
	C288.538300,397.042450 288.536591,396.574646 288.534882,396.106812 
	C284.429016,396.298828 279.833862,396.678101 279.481598,391.087891 
	C279.186584,386.405945 279.964935,381.656342 280.632294,376.267700 
M180.222305,377.078979 
	C180.694946,376.935974 181.167603,376.792969 183.075546,376.215698 
	C177.981339,376.215698 174.416641,376.215698 171.244690,376.215698 
	C171.244690,383.655579 171.244690,390.857330 171.244690,398.234375 
	C174.691574,398.047974 177.654358,397.887726 180.617142,397.727509 
	C180.588959,397.435852 180.560776,397.144196 180.532578,396.852539 
	C178.486801,396.719208 176.441025,396.585907 173.756866,396.410980 
	C174.384903,392.639465 174.940140,389.305206 175.515656,385.849121 
	C172.138168,383.831573 175.043625,380.407196 174.549789,377.090057 
	C176.369629,377.090057 177.848892,377.090057 180.222305,377.078979 
M249.985947,397.694214 
	C249.985947,390.220337 249.985947,382.746460 249.985947,374.907410 
	C248.429047,375.250000 246.882187,375.590363 246.056595,375.772034 
	C246.056595,383.368347 246.056595,390.530640 246.056595,397.992279 
	C247.062164,397.992279 248.176392,397.992279 249.985947,397.694214 
M321.507721,376.156128 
	C321.982727,383.346710 322.457733,390.537292 322.954498,398.057251 
	C323.699036,397.919922 325.330536,397.619019 326.630127,397.379303 
	C323.883606,393.722168 325.530121,390.018494 325.401703,386.654144 
	C325.258698,382.907532 325.683960,379.139252 325.881714,374.961151 
	C324.638397,375.230377 323.416138,375.494995 321.507721,376.156128 
M158.599365,386.186829 
	C158.599365,390.065765 158.599365,393.944702 158.599365,398.267883 
	C160.374969,397.904907 161.892380,397.594727 161.976959,397.577454 
	C161.976959,393.387177 161.976974,389.954407 161.976974,386.521637 
	C161.976974,382.726532 161.976959,378.931458 161.976959,374.919312 
	C160.953308,375.138672 159.424011,375.466339 158.647202,375.632782 
	C158.779587,378.482025 159.024384,380.767242 158.927872,383.038025 
	C158.885025,384.045868 158.152756,385.024414 158.599365,386.186829 
M143.422150,376.709137 
	C143.914032,377.578430 144.814392,378.439453 144.832138,379.318298 
	C144.956207,385.464203 144.897781,391.613770 144.897781,398.079865 
	C145.941818,397.881104 147.606033,397.564270 149.331589,397.235779 
	C145.643463,393.765656 148.187088,389.963379 147.905212,386.563904 
	C147.590439,382.767487 147.833008,378.924866 147.833008,374.725983 
	C146.507828,375.160217 145.157227,375.602753 143.422150,376.709137 
M303.623810,379.925629 
	C301.257812,383.614471 303.219391,385.538574 306.330963,387.415131 
	C308.855743,388.937775 311.028137,391.044647 313.844910,393.279724 
	C316.276306,391.919586 316.397736,389.490265 312.468872,387.496643 
	C308.727783,385.598328 305.445679,383.564789 303.623810,379.925629 
M233.979599,394.590790 
	C237.895966,398.556122 237.895966,398.556122 241.329712,396.233276 
	C235.979370,394.709869 234.417145,387.457581 227.817474,387.933319 
	C229.715927,389.970367 231.614380,392.007416 233.979599,394.590790 
M342.877686,383.727753 
	C343.422791,383.534821 343.967896,383.341888 344.513000,383.148926 
	C344.385345,382.869873 344.257690,382.590820 344.130005,382.311768 
	C343.568573,382.638763 343.007172,382.965759 342.877686,383.727753 
M336.481628,378.600525 
	C336.481628,378.600525 336.406830,378.478607 336.481628,378.600525 
z"/>
<path fill="#111111" opacity="1.000000" stroke="none" 
	d="
M425.096436,406.591095 
	C424.371307,406.752899 423.187805,406.489380 423.194733,406.261963 
	C423.404846,399.324707 423.997040,392.391174 424.001038,385.456726 
	C424.059235,284.524597 424.024902,183.592453 424.094604,82.660355 
	C424.097717,78.112915 423.731598,73.705925 419.742981,71.124062 
	C417.139191,69.438637 413.746063,68.115578 410.699432,68.100914 
	C369.727997,67.903748 328.755310,67.960526 287.782928,67.964073 
	C221.161194,67.969841 154.539459,67.982796 87.311661,67.725571 
	C86.413414,67.279442 86.121223,67.100464 85.829025,66.921478 
	C87.547150,66.598480 89.265160,65.993477 90.983414,65.992783 
	C197.578644,65.949921 304.173889,65.952858 410.769135,65.964508 
	C420.365601,65.965553 426.042908,71.772049 426.043579,81.557533 
	C426.050903,187.819672 426.052979,294.081818 426.013000,400.343964 
	C426.012268,402.290253 425.478210,404.236389 425.096436,406.591095 
z"/>
<path fill="#080808" opacity="1.000000" stroke="none" 
	d="
M85.491280,66.926064 
	C86.121223,67.100464 86.413414,67.279442 86.844170,67.676598 
	C80.570442,70.835045 77.854263,75.513039 77.866562,82.868431 
	C78.043159,188.512451 77.987633,294.156830 77.987885,399.801147 
	C77.987885,402.437225 77.987877,405.073334 77.987877,407.709412 
	C77.703758,407.767731 77.419632,407.826080 77.135513,407.884430 
	C76.750877,405.641602 76.030884,403.398987 76.029762,401.155945 
	C75.976227,294.345245 75.995338,187.534515 75.954178,80.723801 
	C75.952232,75.671791 77.940323,71.799461 81.885239,68.382484 
	C83.065598,67.691116 84.109566,67.310883 85.491280,66.926064 
z"/>
<path fill="#080808" opacity="1.000000" stroke="none" 
	d="
M84.484818,414.869324 
	C83.546227,414.446045 83.028229,414.080231 82.154572,413.463196 
	C194.471573,413.463196 306.491547,413.463196 419.545929,413.463196 
	C417.734070,414.326141 416.592621,414.869781 415.219513,415.684052 
	C333.036591,415.975128 251.085342,415.997070 169.134094,416.015106 
	C143.315964,416.020782 117.497749,416.042969 91.679832,415.968536 
	C89.420708,415.962036 87.163498,415.289795 84.484818,414.869324 
z"/>
<path fill="#030303" opacity="1.000000" stroke="none" 
	d="
M204.188950,146.000153 
	C204.031357,133.842178 203.876266,122.184204 203.697815,110.526588 
	C203.693436,110.240463 203.429626,109.958321 203.037521,109.178551 
	C201.490341,109.178551 199.703339,109.179039 197.916336,109.178474 
	C182.086670,109.173477 166.256866,109.207909 150.427429,109.144463 
	C143.718887,109.117577 138.643768,104.403595 138.060104,97.904594 
	C137.511612,91.797188 141.596680,86.160370 147.757431,84.706215 
	C149.358551,84.328293 151.048889,84.178772 152.698441,84.177528 
	C196.355133,84.144707 240.011856,84.129753 283.668549,84.154625 
	C291.186737,84.158913 295.966156,87.560547 297.617584,93.806915 
	C299.038696,99.182213 296.591431,105.121780 291.409210,107.736382 
	C289.444092,108.727837 286.973846,109.082794 284.729553,109.098129 
	C267.900787,109.213112 251.070938,109.170639 234.241440,109.177284 
	C232.614365,109.177925 230.987289,109.177368 229.109558,109.177368 
	C229.109558,115.306198 229.109558,121.039337 229.109558,127.149635 
	C231.160645,127.149635 232.946259,127.149399 234.731857,127.149666 
	C273.056488,127.155510 311.381134,127.134026 349.705719,127.185204 
	C360.218445,127.199249 366.419037,135.084030 363.084473,144.142883 
	C361.312958,148.955505 357.535675,151.955917 352.536713,151.992554 
	C325.729156,152.189026 298.919434,152.085342 271.342377,152.085342 
	C271.342377,148.884537 271.431946,145.921982 271.317566,142.967316 
	C271.199615,139.919449 269.653046,137.291031 266.506958,138.113968 
	C264.513367,138.635437 262.306183,141.068985 261.614746,143.122971 
	C260.818726,145.487640 261.634460,148.378616 261.670593,151.042068 
	C262.425842,206.680008 263.190979,262.317841 263.894073,317.956451 
	C264.004364,326.684204 259.031982,332.139069 251.328079,332.145996 
	C243.600143,332.152954 238.946167,326.941223 238.943970,317.902100 
	C238.930084,260.750122 238.980804,203.598129 238.974670,146.446152 
	C238.974258,142.592026 240.022812,137.899414 234.239151,137.106735 
	C230.438812,136.585892 229.004868,139.349014 229.004684,146.438568 
	C229.003601,187.929153 229.004517,229.419754 229.003799,270.910339 
	C229.003677,277.632080 225.676315,281.777893 219.579514,282.661163 
	C213.805618,283.497650 207.334122,279.186523 205.945023,273.373016 
	C205.448029,271.293121 205.304581,269.091156 205.279709,266.941681 
	C204.892181,233.454361 204.539886,199.966644 204.207428,166.478729 
	C204.141327,159.819824 204.191788,153.159744 204.188950,146.000153 
z"/>
<path fill="#020202" opacity="1.000000" stroke="none" 
	d="
M325.912170,208.435638 
	C308.138245,208.619843 290.740692,208.619843 272.829956,208.619843 
	C272.829956,200.581741 272.829956,192.535675 272.829956,183.997269 
	C283.945099,183.997269 295.198059,183.997223 306.451050,183.997299 
	C311.270813,183.997345 316.090851,183.967026 320.910309,184.005005 
	C328.228851,184.062698 333.364044,187.708237 334.734467,193.757217 
	C336.129395,199.914200 333.180573,204.974655 325.912170,208.435638 
z"/>
<path fill="#030303" opacity="1.000000" stroke="none" 
	d="
M191.953964,152.173187 
	C177.836288,152.163635 164.213028,152.200195 150.590408,152.122101 
	C145.057175,152.090393 141.063049,149.318146 138.952362,144.292862 
	C136.895447,139.395615 137.766098,134.592422 141.680801,131.065567 
	C143.752396,129.199203 146.854355,127.499634 149.528961,127.440712 
	C164.926361,127.101486 180.335083,127.275429 196.187546,127.275429 
	C196.187546,135.050995 196.300598,142.488678 196.023636,149.911835 
	C195.993896,150.708984 193.694946,151.421463 191.953964,152.173187 
z"/>
<path fill="#1B1B1B" opacity="1.000000" stroke="none" 
	d="
M377.694305,377.367615 
	C378.121613,376.280060 378.761078,375.499603 379.400574,374.719147 
	C379.715942,374.906464 380.031342,375.093811 380.346741,375.281128 
	C379.765656,382.745697 379.184601,390.210266 378.662262,396.920380 
	C373.423248,392.819122 368.474945,388.945435 363.739960,385.238770 
	C363.449219,388.837921 363.070374,393.527832 362.691498,398.217743 
	C362.171082,398.138885 361.650665,398.060028 361.130249,397.981171 
	C361.486267,390.458344 361.842255,382.935516 362.196838,375.442963 
	C367.155334,381.358795 371.722137,386.807312 376.288940,392.255859 
	C376.828125,392.089722 377.367310,391.923615 377.906494,391.757507 
	C377.906494,387.063232 377.906494,382.368988 377.694305,377.367615 
z"/>
<path fill="#343434" opacity="1.000000" stroke="none" 
	d="
M126.522171,397.623962 
	C126.759941,390.957367 127.270416,384.600769 127.813126,377.842804 
	C124.498940,377.842804 122.112717,377.842804 119.726501,377.842804 
	C119.683182,377.245178 119.639854,376.647552 119.596535,376.049927 
	C125.949455,375.186493 132.395889,375.319489 138.813538,375.145691 
	C138.894684,375.628937 138.975830,376.112183 139.056976,376.595398 
	C136.520218,376.951447 133.983459,377.307465 130.701660,377.768036 
	C130.332062,383.921448 129.691406,390.235901 130.699142,397.431885 
	C130.061890,397.513824 128.428375,397.723938 126.522171,397.623962 
z"/>
<path fill="#1E1E1E" opacity="1.000000" stroke="none" 
	d="
M261.769775,392.789246 
	C262.126862,394.458801 262.499481,395.680084 263.070770,397.552582 
	C261.907349,397.740021 260.194702,398.015961 258.384125,398.307678 
	C258.384125,390.787933 258.384125,383.619202 258.384125,375.932251 
	C262.041595,375.733612 266.090881,375.513672 270.140137,375.293732 
	C270.203186,375.708710 270.266235,376.123657 270.329285,376.538635 
	C267.662231,376.864349 264.995148,377.190033 262.078247,377.546265 
	C262.078247,380.196411 262.078247,382.790619 262.078247,385.782837 
	C263.977966,385.782837 265.856628,385.782837 267.735321,385.782837 
	C267.773163,386.139038 267.811035,386.495239 267.848907,386.851440 
	C266.119080,387.112152 264.389252,387.372864 262.103577,387.717346 
	C262.002472,389.185974 261.893860,390.763489 261.769775,392.789246 
z"/>
<path fill="#272727" opacity="1.000000" stroke="none" 
	d="
M208.449097,396.143494 
	C207.470001,396.997253 206.125183,397.795471 204.438202,398.796753 
	C204.438202,391.227722 204.438202,384.710876 204.438202,377.700623 
	C202.267654,377.700623 199.794571,377.700623 197.321487,377.700623 
	C197.288712,377.188171 197.255936,376.675690 197.223160,376.163239 
	C203.632599,376.163239 210.042038,376.163239 216.451462,376.163239 
	C216.533218,376.278870 216.614960,376.394531 216.696716,376.510162 
	C213.894409,376.916565 211.092117,377.322937 208.083389,377.759247 
	C208.083389,383.914917 208.083389,390.001434 208.449097,396.143494 
z"/>
<path fill="#0F0F0F" opacity="1.000000" stroke="none" 
	d="
M233.976990,376.903900 
	C236.593765,380.244812 236.007751,382.829437 232.994476,385.390015 
	C232.535797,382.948517 232.736237,380.463257 231.606094,379.019745 
	C230.521927,377.635010 228.057785,377.330658 225.974045,376.456696 
	C224.115646,384.134308 226.711716,391.868927 223.308945,398.333557 
	C222.839615,398.206116 222.370300,398.078674 221.900970,397.951233 
	C221.900970,390.836517 221.900970,383.721802 221.900970,375.471863 
	C225.395035,375.821747 229.540436,376.236847 233.976990,376.903900 
z"/>
<path fill="#181818" opacity="1.000000" stroke="none" 
	d="
M280.450134,376.602203 
	C279.964935,381.656342 279.186584,386.405945 279.481598,391.087891 
	C279.833862,396.678101 284.429016,396.298828 288.534882,396.106812 
	C288.536591,396.574646 288.538300,397.042450 288.540039,397.510284 
	C285.589081,397.510284 282.156097,398.429749 279.841370,397.216217 
	C278.024963,396.263885 276.956512,392.743622 276.682312,390.240753 
	C276.189911,385.745728 276.543335,381.158020 276.543335,375.964783 
	C277.433716,376.030731 279.032990,376.149200 280.450134,376.602203 
z"/>
<path fill="#0F0F0F" opacity="1.000000" stroke="none" 
	d="
M179.775238,377.084534 
	C177.848892,377.090057 176.369629,377.090057 174.549789,377.090057 
	C175.043625,380.407196 172.138168,383.831573 175.515656,385.849121 
	C174.940140,389.305206 174.384903,392.639465 173.756866,396.410980 
	C176.441025,396.585907 178.486801,396.719208 180.532578,396.852539 
	C180.560776,397.144196 180.588959,397.435852 180.617142,397.727509 
	C177.654358,397.887726 174.691574,398.047974 171.244690,398.234375 
	C171.244690,390.857330 171.244690,383.655579 171.244690,376.215698 
	C174.416641,376.215698 177.981339,376.215698 183.075546,376.215698 
	C181.167603,376.792969 180.694946,376.935974 179.775238,377.084534 
z"/>
<path fill="#1A1A1A" opacity="1.000000" stroke="none" 
	d="
M249.638275,397.843262 
	C248.176392,397.992279 247.062164,397.992279 246.056595,397.992279 
	C246.056595,390.530640 246.056595,383.368347 246.056595,375.772034 
	C246.882187,375.590363 248.429047,375.250000 249.985947,374.907410 
	C249.985947,382.746460 249.985947,390.220337 249.638275,397.843262 
z"/>
<path fill="#1C1C1C" opacity="1.000000" stroke="none" 
	d="
M321.850830,375.957886 
	C323.416138,375.494995 324.638397,375.230377 325.881714,374.961151 
	C325.683960,379.139252 325.258698,382.907532 325.401703,386.654144 
	C325.530121,390.018494 323.883606,393.722168 326.630127,397.379303 
	C325.330536,397.619019 323.699036,397.919922 322.954498,398.057251 
	C322.457733,390.537292 321.982727,383.346710 321.850830,375.957886 
z"/>
<path fill="#1A1A1A" opacity="1.000000" stroke="none" 
	d="
M350.497589,381.529053 
	C348.896515,380.249725 347.295410,378.970398 345.051056,377.462616 
	C343.268219,377.241913 342.128662,377.249695 340.989075,377.257477 
	C341.753174,376.658905 342.438812,375.713043 343.294434,375.519745 
	C347.876068,374.484863 352.271606,376.875732 354.128326,381.221039 
	C356.117218,385.875702 355.124603,390.018127 351.415039,392.688477 
	C351.550140,390.007294 351.686798,387.295746 351.642975,383.960724 
	C351.318115,383.226471 351.173767,383.115631 351.040710,382.735474 
	C350.860016,382.171051 350.668030,381.876007 350.472229,381.565186 
	C350.468384,381.549377 350.497589,381.529053 350.497589,381.529053 
z"/>
<path fill="#222222" opacity="1.000000" stroke="none" 
	d="
M158.166397,386.101532 
	C158.152756,385.024414 158.885025,384.045868 158.927872,383.038025 
	C159.024384,380.767242 158.779587,378.482025 158.647202,375.632782 
	C159.424011,375.466339 160.953308,375.138672 161.976959,374.919312 
	C161.976959,378.931458 161.976974,382.726532 161.976974,386.521637 
	C161.976974,389.954407 161.976959,393.387177 161.976959,397.577454 
	C161.892380,397.594727 160.374969,397.904907 158.599365,398.267883 
	C158.599365,393.944702 158.599365,390.065765 158.166397,386.101532 
z"/>
<path fill="#131313" opacity="1.000000" stroke="none" 
	d="
M347.392975,396.596619 
	C342.110168,399.302307 338.285309,398.723816 335.011963,394.723999 
	C331.842224,390.850800 331.967560,385.806152 335.212799,381.452789 
	C335.770966,384.843567 335.288788,389.219299 337.231689,391.681091 
	C339.209808,394.187531 343.575134,394.809875 347.181519,396.389465 
	C347.467834,396.521759 347.392975,396.596619 347.392975,396.596619 
z"/>
<path fill="#181818" opacity="1.000000" stroke="none" 
	d="
M294.995300,397.813751 
	C291.587616,398.618225 291.088562,397.508575 291.432678,394.038361 
	C292.015228,388.163269 291.592682,382.188507 291.592682,375.945953 
	C292.296661,375.859711 293.740875,375.682831 294.708313,375.564331 
	C294.708313,382.326080 294.708313,388.942474 294.823456,396.265228 
	C294.971619,397.251373 294.990509,397.532104 294.995300,397.813751 
z"/>
<path fill="#222222" opacity="1.000000" stroke="none" 
	d="
M143.614380,376.377228 
	C145.157227,375.602753 146.507828,375.160217 147.833008,374.725983 
	C147.833008,378.924866 147.590439,382.767487 147.905212,386.563904 
	C148.187088,389.963379 145.643463,393.765656 149.331589,397.235779 
	C147.606033,397.564270 145.941818,397.881104 144.897781,398.079865 
	C144.897781,391.613770 144.956207,385.464203 144.832138,379.318298 
	C144.814392,378.439453 143.914032,377.578430 143.614380,376.377228 
z"/>
<path fill="#131313" opacity="1.000000" stroke="none" 
	d="
M303.856232,379.644379 
	C305.445679,383.564789 308.727783,385.598328 312.468872,387.496643 
	C316.397736,389.490265 316.276306,391.919586 313.844910,393.279724 
	C311.028137,391.044647 308.855743,388.937775 306.330963,387.415131 
	C303.219391,385.538574 301.257812,383.614471 303.856232,379.644379 
z"/>
<path fill="#131313" opacity="1.000000" stroke="none" 
	d="
M233.746216,394.317627 
	C231.614380,392.007416 229.715927,389.970367 227.817474,387.933319 
	C234.417145,387.457581 235.979370,394.709869 241.329712,396.233276 
	C237.895966,398.556122 237.895966,398.556122 233.746216,394.317627 
z"/>
<path fill="#F7F7F7" opacity="1.000000" stroke="none" 
	d="
M341.003662,377.625519 
	C342.128662,377.249695 343.268219,377.241913 344.690552,377.428650 
	C344.369110,378.384735 343.764923,379.146271 343.160736,379.907806 
	C342.446564,379.269714 341.732422,378.631653 341.003662,377.625519 
z"/>
<path fill="#F7F7F7" opacity="1.000000" stroke="none" 
	d="
M342.661713,383.510254 
	C343.007172,382.965759 343.568573,382.638763 344.130005,382.311768 
	C344.257690,382.590820 344.385345,382.869873 344.513000,383.148926 
	C343.967896,383.341888 343.422791,383.534821 342.661713,383.510254 
z"/>
<path fill="#F7F7F7" opacity="1.000000" stroke="none" 
	d="
M351.029388,383.004822 
	C351.173767,383.115631 351.318115,383.226471 351.491028,383.608734 
	C350.553894,384.020935 349.588287,384.161682 347.474884,384.469696 
	C348.634674,383.133026 349.217010,382.461884 350.148438,381.659912 
	C350.497589,381.529053 350.468384,381.549377 350.412201,381.845856 
	C350.580475,382.429810 350.804932,382.717316 351.029388,383.004822 
z"/>
<path fill="#1C1C1C" opacity="1.000000" stroke="none" 
	d="
M295.251038,397.855774 
	C294.990509,397.532104 294.971619,397.251373 294.909180,396.762573 
	C295.516663,396.508789 296.153625,396.464020 297.218811,396.389130 
	C296.442139,397.073578 295.974457,397.485687 295.251038,397.855774 
z"/>
<path fill="#F7F7F7" opacity="1.000000" stroke="none" 
	d="
M336.444214,378.539551 
	C336.406830,378.478607 336.481628,378.600525 336.444214,378.539551 
z"/>
<path fill="#F7F7F7" opacity="1.000000" stroke="none" 
	d="
M347.617889,396.648682 
	C347.392975,396.596619 347.467834,396.521759 347.428009,396.486694 
	C347.539734,396.534698 347.691254,396.617737 347.617889,396.648682 
z"/>
<path fill="#FEFEFE" opacity="1.000000" stroke="none" 
	d="
M351.040710,382.735474 
	C350.804932,382.717316 350.580475,382.429810 350.416046,381.861664 
	C350.668030,381.876007 350.860016,382.171051 351.040710,382.735474 
z"/>
</svg>